<svg width="115" height="45" viewBox="0 0 115 45" fill="none" xmlns="http://www.w3.org/2000/svg">
<g clip-path="url(#clip0_2605_6628)">
<path d="M34.1467 9.58545V13.6781C33.0381 13.0846 31.9052 12.5529 30.7357 12.0831V27.6993C30.6504 28.7503 30.3337 29.727 29.8464 30.5925C29.2738 31.5941 28.4698 32.4348 27.4952 33.0407L27.3247 33.1396L27.1785 33.2262L25.7776 34.0546L20.5027 37.1457L17.0795 39.1611V35.1303L18.8946 34.0669L20.4905 33.1396C20.4905 33.1396 20.5027 33.1396 20.5148 33.152V33.1272L24.8152 30.6049L25.4974 30.2092C25.5826 30.1598 25.6679 30.1103 25.7532 30.0609C26.6669 29.455 27.2881 28.4411 27.3369 27.2665C27.3369 27.2171 27.3369 27.1552 27.3369 27.1058C27.3369 27.0563 27.3369 26.9945 27.3369 26.945V10.8961C24.1208 9.95638 20.7098 9.44944 17.2013 9.44944C13.6928 9.44944 10.1356 9.96875 6.85859 10.9579V27.6622C7.1266 29.319 8.55192 30.5925 10.2696 30.5925H17.0916V34.0546H9.85542C7.49207 33.9186 5.44546 32.5585 4.3247 30.5925C3.86177 29.7765 3.55722 28.8492 3.44758 27.86V12.1696C2.27809 12.6518 1.13296 13.1959 0.0365601 13.7893V9.68437C1.14514 9.16506 2.29027 8.68285 3.44758 8.26246C4.56834 7.85444 5.70128 7.49587 6.85859 7.19912C10.16 6.32125 13.6319 5.86377 17.2013 5.86377C21.9523 5.86377 26.5207 6.69218 30.7601 8.20064C31.9174 8.62103 33.0625 9.07851 34.1711 9.59781L34.1467 9.58545Z" fill="url(#paint0_linear_2605_6628)"/>
<path d="M11.9508 18.8338C13.1013 18.8338 14.0339 17.8872 14.0339 16.7195C14.0339 15.5518 13.1013 14.6052 11.9508 14.6052C10.8003 14.6052 9.86761 15.5518 9.86761 16.7195C9.86761 17.8872 10.8003 18.8338 11.9508 18.8338Z" fill="#1C174C"/>
<path d="M22.1959 18.8338C23.3464 18.8338 24.2791 17.8872 24.2791 16.7195C24.2791 15.5518 23.3464 14.6052 22.1959 14.6052C21.0455 14.6052 20.1128 15.5518 20.1128 16.7195C20.1128 17.8872 21.0455 18.8338 22.1959 18.8338Z" fill="#1C174C"/>
<path d="M22.1838 21.925C22.1838 22.8895 21.9279 23.7921 21.4772 24.5587C21.2823 24.8801 21.063 25.1892 20.8072 25.4613C20.7097 25.5725 20.6001 25.6715 20.4904 25.7827C19.589 26.6112 18.3951 27.1181 17.0794 27.1181H17.0672C15.5688 27.1181 14.2288 26.4628 13.2908 25.4365C13.0593 25.1769 12.8522 24.8925 12.6695 24.5958C12.2065 23.8168 11.9385 22.9018 11.9385 21.925H22.1838Z" fill="#1C174C"/>
<path d="M40.7373 9.70898H44.2336V24.8801L51.7257 16.8061H55.8189L49.606 23.7426L55.9163 33.9308H52.018L47.2061 26.166L44.2336 29.3189V33.9308H40.7373V9.70898Z" fill="#1C174C"/>
<path d="M58.3649 9.70898H61.9952V13.6285H58.3649V9.70898ZM58.4258 16.769H61.9221V33.9061H58.4258V16.769Z" fill="#1C174C"/>
<path d="M64.5413 25.3747C64.5413 20.5526 67.9523 16.6331 72.7399 16.6331C77.5275 16.6331 80.9386 20.5526 80.9386 25.3747C80.9386 30.1968 77.5275 34.1163 72.7399 34.1163C67.9523 34.1163 64.5413 30.1968 64.5413 25.3747ZM77.5397 25.3747C77.5397 22.432 75.7489 19.5387 72.7521 19.5387C69.7553 19.5387 67.9645 22.4196 67.9645 25.3747C67.9645 28.3298 69.7553 31.1736 72.7521 31.1736C75.7489 31.1736 77.5397 28.3174 77.5397 25.3747Z" fill="#1C174C"/>
<path d="M83.509 28.3792H86.6886C86.7739 30.2462 88.1139 31.5815 90.5625 31.5815C92.7919 31.5815 94.1319 30.4811 94.1319 28.8985C94.1319 27.6991 93.3401 26.9572 91.464 26.6358L88.0895 26.0546C85.1049 25.5353 83.5699 24.1876 83.5699 21.69C83.5699 18.6484 86.2135 16.6577 90.0631 16.6577C93.9126 16.6577 96.4587 18.6607 97.0435 21.8879H93.8639C93.3157 20.367 92.2315 19.18 90.0631 19.18C88.0286 19.18 86.6886 19.9837 86.6886 21.4056C86.6886 22.5061 87.3221 22.9265 89.0154 23.2108L92.4508 23.792C95.6669 24.336 97.2871 25.8321 97.2871 28.6017C97.2871 31.9648 94.3268 34.0915 90.5747 34.0915C86.5058 34.0915 83.8014 31.9277 83.5212 28.3792H83.509Z" fill="#1C174C"/>
<path d="M99.821 9.70898H103.317V24.8801L110.809 16.8061H114.903L108.69 23.7426L115 33.9308H111.102L106.29 26.166L103.317 29.3189V33.9308H99.821V9.70898Z" fill="#1C174C"/>
</g>
<defs>
<linearGradient id="paint0_linear_2605_6628" x1="1.34505e-05" y1="22.5062" x2="34.1467" y2="22.5062" gradientUnits="userSpaceOnUse">
<stop stop-color="#AB7AEF"/>
<stop offset="1" stop-color="#1C169A"/>
</linearGradient>
<clipPath id="clip0_2605_6628">
<rect width="115" height="33.2973" fill="white" transform="translate(0 5.85132)"/>
</clipPath>
</defs>
</svg>
