<svg width="25" height="24" viewBox="0 0 25 24" fill="none" xmlns="http://www.w3.org/2000/svg">
<path d="M0.5 12C0.5 5.37258 5.87258 0 12.5 0C19.1274 0 24.5 5.37258 24.5 12C24.5 18.6274 19.1274 24 12.5 24C5.87258 24 0.5 18.6274 0.5 12Z" fill="#5A3DCC"/>
<path d="M10.0057 17V7.20001H13.4637C14.1357 7.20001 14.7284 7.33535 15.2417 7.60601C15.7551 7.87668 16.1564 8.25468 16.4457 8.74001C16.7351 9.21601 16.8797 9.77135 16.8797 10.406C16.8797 11.022 16.7444 11.5727 16.4737 12.058C16.2031 12.5433 15.8251 12.926 15.3397 13.206C14.8637 13.4767 14.3084 13.612 13.6737 13.612H11.6297V17H10.0057ZM11.6297 12.114H13.6457C14.1124 12.114 14.4951 11.9553 14.7937 11.638C15.0924 11.3207 15.2417 10.91 15.2417 10.406C15.2417 9.89268 15.0737 9.47735 14.7377 9.16001C14.4017 8.84268 13.9677 8.68401 13.4357 8.68401H11.6297V12.114Z" fill="white"/>
</svg>
