<svg width="22" height="22" viewBox="0 0 22 22" fill="none" xmlns="http://www.w3.org/2000/svg">
<g clip-path="url(#clip0_6483_1334)">
<g clip-path="url(#clip1_6483_1334)">
<path d="M19.25 21.9083L15.8923 19.6066L13.4503 21.2795L11.0064 19.6057L8.56258 21.2777L6.11417 19.6038L2.75 21.9083V2.75C2.75 2.02065 3.03973 1.32118 3.55546 0.805456C4.07118 0.289731 4.77065 0 5.5 0L16.5 0C17.2293 0 17.9288 0.289731 18.4445 0.805456C18.9603 1.32118 19.25 2.02065 19.25 2.75V21.9083ZM6.11417 17.3818L8.56167 19.0557L11.0064 17.3818L13.4503 19.0557L15.8932 17.3809L17.4167 18.425V2.75C17.4167 2.50688 17.3201 2.27373 17.1482 2.10182C16.9763 1.92991 16.7431 1.83333 16.5 1.83333H5.5C5.25688 1.83333 5.02373 1.92991 4.85182 2.10182C4.67991 2.27373 4.58333 2.50688 4.58333 2.75V18.425L6.11417 17.3818Z" fill="white"/>
<path d="M15.5834 7.33333H6.41669V9.16666H15.5834V7.33333Z" fill="white"/>
<path d="M13.75 11H6.41669V12.8333H13.75V11Z" fill="white"/>
</g>
</g>
<defs>
<clipPath id="clip0_6483_1334">
<rect width="22" height="22" fill="white"/>
</clipPath>
<clipPath id="clip1_6483_1334">
<rect width="22" height="22" fill="white"/>
</clipPath>
</defs>
</svg>
