<svg width="22" height="22" viewBox="0 0 22 22" fill="none" xmlns="http://www.w3.org/2000/svg">
<g clip-path="url(#clip0_6483_1393)">
<g clip-path="url(#clip1_6483_1393)">
<path d="M17.4167 0.916664H4.58333C2.05608 0.916664 0 2.97275 0 5.5V16.5C0 19.0272 2.05608 21.0833 4.58333 21.0833H17.4167C19.9439 21.0833 22 19.0272 22 16.5V5.5C22 2.97275 19.9439 0.916664 17.4167 0.916664ZM20.1667 16.5C20.1667 18.0162 18.9328 19.25 17.4167 19.25H4.58333C3.06717 19.25 1.83333 18.0162 1.83333 16.5V5.5C1.83333 3.98383 3.06717 2.75 4.58333 2.75H17.4167C18.9328 2.75 20.1667 3.98383 20.1667 5.5V16.5ZM17.4167 6.41666C17.4167 6.92266 17.006 7.33333 16.5 7.33333H10.0833C9.57733 7.33333 9.16667 6.92266 9.16667 6.41666C9.16667 5.91066 9.57733 5.5 10.0833 5.5H16.5C17.006 5.5 17.4167 5.91066 17.4167 6.41666ZM7.33333 6.41666C7.33333 7.17566 6.71733 7.79166 5.95833 7.79166C5.19933 7.79166 4.58333 7.17566 4.58333 6.41666C4.58333 5.65766 5.19933 5.04166 5.95833 5.04166C6.71733 5.04166 7.33333 5.65766 7.33333 6.41666ZM17.4167 11C17.4167 11.506 17.006 11.9167 16.5 11.9167H10.0833C9.57733 11.9167 9.16667 11.506 9.16667 11C9.16667 10.494 9.57733 10.0833 10.0833 10.0833H16.5C17.006 10.0833 17.4167 10.494 17.4167 11ZM7.33333 11C7.33333 11.759 6.71733 12.375 5.95833 12.375C5.19933 12.375 4.58333 11.759 4.58333 11C4.58333 10.241 5.19933 9.625 5.95833 9.625C6.71733 9.625 7.33333 10.241 7.33333 11ZM17.4167 15.5833C17.4167 16.0893 17.006 16.5 16.5 16.5H10.0833C9.57733 16.5 9.16667 16.0893 9.16667 15.5833C9.16667 15.0773 9.57733 14.6667 10.0833 14.6667H16.5C17.006 14.6667 17.4167 15.0773 17.4167 15.5833ZM7.33333 15.5833C7.33333 16.3423 6.71733 16.9583 5.95833 16.9583C5.19933 16.9583 4.58333 16.3423 4.58333 15.5833C4.58333 14.8243 5.19933 14.2083 5.95833 14.2083C6.71733 14.2083 7.33333 14.8243 7.33333 15.5833Z" fill="white"/>
</g>
</g>
<defs>
<clipPath id="clip0_6483_1393">
<rect width="22" height="22" fill="white"/>
</clipPath>
<clipPath id="clip1_6483_1393">
<rect width="22" height="22" fill="white"/>
</clipPath>
</defs>
</svg>
