<svg width="22" height="22" viewBox="0 0 22 22" fill="none" xmlns="http://www.w3.org/2000/svg">
<g clip-path="url(#clip0_6483_1484)">
<g clip-path="url(#clip1_6483_1484)">
<path d="M20.625 8.25H20.1667V7.33333C20.1667 4.80608 18.1106 2.75 15.5833 2.75H11.9167V0.916667C11.9167 0.410667 11.5069 0 11 0C10.4931 0 10.0833 0.410667 10.0833 0.916667V2.75H6.41667C3.88942 2.75 1.83333 4.80608 1.83333 7.33333V8.25H1.375C0.616917 8.25 0 8.86692 0 9.625V12.375C0 13.1331 0.616917 13.75 1.375 13.75H1.83333V14.6667C1.83333 17.1939 3.88942 19.25 6.41667 19.25H13.4722L17.105 21.6718C17.435 21.8918 17.8154 22.0028 18.1968 22.0028C18.5158 22.0028 18.8347 21.9257 19.1272 21.769C19.7679 21.4252 20.1667 20.7607 20.1667 20.0328V13.7491H20.625C21.3831 13.7491 22 13.1322 22 12.3741V9.62408C22 8.866 21.3831 8.24908 20.625 8.24908V8.25ZM18.3333 20.0338C18.3333 20.0539 18.3333 20.1153 18.2618 20.1529C18.1885 20.1923 18.1372 20.1566 18.1225 20.1465L14.2588 17.5707C14.1084 17.4707 13.9315 17.4167 13.75 17.4167H6.41667C4.9005 17.4167 3.66667 16.1828 3.66667 14.6667V7.33333C3.66667 5.81717 4.9005 4.58333 6.41667 4.58333H15.5833C17.0995 4.58333 18.3333 5.81717 18.3333 7.33333V20.0338ZM6.41667 8.70833C6.41667 7.94933 7.03267 7.33333 7.79167 7.33333C8.55067 7.33333 9.16667 7.94933 9.16667 8.70833C9.16667 9.46733 8.55067 10.0833 7.79167 10.0833C7.03267 10.0833 6.41667 9.46733 6.41667 8.70833ZM15.5833 8.70833C15.5833 9.46733 14.9673 10.0833 14.2083 10.0833C13.4493 10.0833 12.8333 9.46733 12.8333 8.70833C12.8333 7.94933 13.4493 7.33333 14.2083 7.33333C14.9673 7.33333 15.5833 7.94933 15.5833 8.70833ZM15.4431 13.0121C15.7126 13.4411 15.5824 14.0067 15.1543 14.2753C14.2037 14.872 12.7105 15.5833 11.0009 15.5833C9.29133 15.5833 7.79808 14.872 6.8475 14.2753C6.4185 14.0067 6.28925 13.4402 6.55875 13.0121C6.82825 12.584 7.39383 12.4538 7.82192 12.7224C8.569 13.1917 9.72767 13.75 11.0018 13.75C12.276 13.75 13.4338 13.1917 14.1818 12.7224C14.6089 12.4529 15.1763 12.5831 15.4449 13.0121H15.4431Z" fill="white"/>
</g>
</g>
<defs>
<clipPath id="clip0_6483_1484">
<rect width="22" height="22" fill="white"/>
</clipPath>
<clipPath id="clip1_6483_1484">
<rect width="22" height="22" fill="white"/>
</clipPath>
</defs>
</svg>
