<svg width="22" height="22" viewBox="0 0 22 22" fill="none" xmlns="http://www.w3.org/2000/svg">
<g clip-path="url(#clip0_6483_1328)">
<path d="M22 22H11.0165C8.87057 21.999 6.7718 21.3703 4.97871 20.1914C3.18561 19.0125 1.77649 17.3349 0.924922 15.3651C0.0733526 13.3954 -0.183478 11.2196 0.186064 9.10573C0.555607 6.99186 1.53538 5.03224 3.00471 3.46825C4.47404 1.90425 6.36875 0.804184 8.45546 0.303543C10.5422 -0.197097 12.7298 -0.076446 14.7488 0.650637C16.7678 1.37772 18.53 2.67948 19.8184 4.39557C21.1068 6.11167 21.8652 8.16715 22 10.3088V10.3666V22ZM11.0165 1.83333C8.58535 1.83333 6.25377 2.7991 4.53469 4.51819C2.8156 6.23727 1.84983 8.56885 1.84983 11C1.84983 13.4312 2.8156 15.7627 4.53469 17.4818C6.25377 19.2009 8.58535 20.1667 11.0165 20.1667H20.1667V10.3959C20.0095 8.07521 18.9775 5.90061 17.2791 4.31129C15.5807 2.72198 13.3425 1.83638 11.0165 1.83333Z" fill="white"/>
<path d="M11.9167 6.41666H6.41669V8.24999H11.9167V6.41666Z" fill="white"/>
<path d="M15.5834 10.0833H6.41669V11.9167H15.5834V10.0833Z" fill="white"/>
<path d="M15.5834 13.75H6.41669V15.5833H15.5834V13.75Z" fill="white"/>
</g>
<defs>
<clipPath id="clip0_6483_1328">
<rect width="22" height="22" fill="white"/>
</clipPath>
</defs>
</svg>
