<svg width="25" height="25" viewBox="0 0 25 25" fill="none" xmlns="http://www.w3.org/2000/svg">
<g clip-path="url(#clip0_6542_276)">
<path d="M17.7083 14.5833C17.7083 14.8596 17.5986 15.1246 17.4032 15.3199C17.2079 15.5153 16.9429 15.625 16.6666 15.625H8.33331C8.05705 15.625 7.79209 15.5153 7.59674 15.3199C7.40139 15.1246 7.29165 14.8596 7.29165 14.5833C7.29165 14.3071 7.40139 14.0421 7.59674 13.8468C7.79209 13.6514 8.05705 13.5417 8.33331 13.5417H16.6666C16.9429 13.5417 17.2079 13.6514 17.4032 13.8468C17.5986 14.0421 17.7083 14.3071 17.7083 14.5833ZM13.5416 17.7083H8.33331C8.05705 17.7083 7.79209 17.8181 7.59674 18.0134C7.40139 18.2088 7.29165 18.4737 7.29165 18.75C7.29165 19.0263 7.40139 19.2912 7.59674 19.4866C7.79209 19.6819 8.05705 19.7917 8.33331 19.7917H13.5416C13.8179 19.7917 14.0829 19.6819 14.2782 19.4866C14.4736 19.2912 14.5833 19.0263 14.5833 18.75C14.5833 18.4737 14.4736 18.2088 14.2782 18.0134C14.0829 17.8181 13.8179 17.7083 13.5416 17.7083ZM22.9166 10.9219V19.7917C22.915 21.1725 22.3657 22.4963 21.3893 23.4727C20.4129 24.4491 19.0891 24.9983 17.7083 25H7.29165C5.91082 24.9983 4.58702 24.4491 3.61063 23.4727C2.63423 22.4963 2.08497 21.1725 2.08331 19.7917V5.20833C2.08497 3.82751 2.63423 2.50371 3.61063 1.52731C4.58702 0.55092 5.91082 0.00165514 7.29165 1.12085e-06H11.9948C12.9527 -0.00246443 13.9016 0.184988 14.7867 0.551521C15.6717 0.918054 16.4753 1.4564 17.151 2.13542L20.7802 5.76667C21.4596 6.44192 21.9983 7.24527 22.365 8.13018C22.7317 9.0151 22.9192 9.96398 22.9166 10.9219ZM15.6781 3.60833C15.3503 3.29079 14.9822 3.01763 14.5833 2.79583V7.29167C14.5833 7.56794 14.6931 7.83289 14.8884 8.02824C15.0838 8.22359 15.3487 8.33333 15.625 8.33333H20.1208C19.8989 7.93457 19.6254 7.56682 19.3073 7.23958L15.6781 3.60833ZM20.8333 10.9219C20.8333 10.75 20.8 10.5854 20.7844 10.4167H15.625C14.7962 10.4167 14.0013 10.0874 13.4153 9.50138C12.8292 8.91533 12.5 8.12047 12.5 7.29167V2.13229C12.3312 2.11667 12.1656 2.08333 11.9948 2.08333H7.29165C6.46284 2.08333 5.66799 2.41257 5.08194 2.99863C4.49589 3.58468 4.16665 4.37953 4.16665 5.20833V19.7917C4.16665 20.6205 4.49589 21.4153 5.08194 22.0014C5.66799 22.5874 6.46284 22.9167 7.29165 22.9167H17.7083C18.5371 22.9167 19.332 22.5874 19.918 22.0014C20.5041 21.4153 20.8333 20.6205 20.8333 19.7917V10.9219Z" fill="#5A3DCC"/>
</g>
<defs>
<clipPath id="clip0_6542_276">
<rect width="25" height="25" fill="white"/>
</clipPath>
</defs>
</svg>
