<svg width="18" height="19" viewBox="0 0 18 19" fill="none" xmlns="http://www.w3.org/2000/svg">
<g clip-path="url(#clip0_6542_548)">
<g clip-path="url(#clip1_6542_548)">
<path d="M15 8.75V14.75C15 16.8177 13.3177 18.5 11.25 18.5H3.75C1.68225 18.5 0 16.8177 0 14.75V7.25C0 5.18225 1.68225 3.5 3.75 3.5H9.75C10.164 3.5 10.5 3.836 10.5 4.25C10.5 4.664 10.164 5 9.75 5H3.75C2.5095 5 1.5 6.0095 1.5 7.25V14.75C1.5 15.9905 2.5095 17 3.75 17H11.25C12.4905 17 13.5 15.9905 13.5 14.75V8.75C13.5 8.336 13.836 8 14.25 8C14.664 8 15 8.336 15 8.75ZM15.75 0.5H10.5C10.086 0.5 9.75 0.836 9.75 1.25C9.75 1.664 10.086 2 10.5 2H15.4395L6.21975 11.2198C5.9265 11.513 5.9265 11.987 6.21975 12.2802C6.366 12.4265 6.558 12.5 6.75 12.5C6.942 12.5 7.134 12.4265 7.28025 12.2802L16.5 3.0605V8C16.5 8.414 16.836 8.75 17.25 8.75C17.664 8.75 18 8.414 18 8V2.75C18 1.5095 16.9905 0.5 15.75 0.5Z" fill="white"/>
</g>
</g>
<defs>
<clipPath id="clip0_6542_548">
<rect width="18" height="18" fill="white" transform="translate(0 0.5)"/>
</clipPath>
<clipPath id="clip1_6542_548">
<rect width="18" height="18" fill="white" transform="translate(0 0.5)"/>
</clipPath>
</defs>
</svg>
