<svg width="22" height="22" viewBox="0 0 22 22" fill="none" xmlns="http://www.w3.org/2000/svg">
<g clip-path="url(#clip0_6483_1379)">
<g clip-path="url(#clip1_6483_1379)">
<path d="M11 0C8.82441 0 6.69767 0.645139 4.88873 1.85383C3.07979 3.06253 1.66989 4.7805 0.83733 6.79048C0.00476615 8.80047 -0.213071 11.0122 0.211367 13.146C0.635804 15.2798 1.68345 17.2398 3.22183 18.7782C4.76021 20.3166 6.72022 21.3642 8.85401 21.7886C10.9878 22.2131 13.1995 21.9952 15.2095 21.1627C17.2195 20.3301 18.9375 18.9202 20.1462 17.1113C21.3549 15.3023 22 13.1756 22 11C21.9969 8.08359 20.8369 5.28753 18.7747 3.22531C16.7125 1.16309 13.9164 0.00315432 11 0ZM11 20.1667C9.18701 20.1667 7.41473 19.6291 5.90728 18.6218C4.39983 17.6146 3.22491 16.1829 2.53111 14.5079C1.83731 12.8329 1.65578 10.9898 2.00947 9.21167C2.36317 7.43351 3.23621 5.80017 4.51819 4.51819C5.80017 3.23621 7.43352 2.36317 9.21168 2.00947C10.9898 1.65577 12.8329 1.8373 14.5079 2.5311C16.1829 3.22491 17.6146 4.39982 18.6218 5.90727C19.6291 7.41472 20.1667 9.18701 20.1667 11C20.164 13.4303 19.1974 15.7604 17.4789 17.4789C15.7604 19.1974 13.4303 20.164 11 20.1667Z" fill="white"/>
<path d="M11 4.58334C10.7569 4.58334 10.5237 4.67992 10.3518 4.85183C10.1799 5.02374 10.0833 5.2569 10.0833 5.50001V12.8333C10.0833 13.0765 10.1799 13.3096 10.3518 13.4815C10.5237 13.6534 10.7569 13.75 11 13.75C11.2431 13.75 11.4763 13.6534 11.6482 13.4815C11.8201 13.3096 11.9166 13.0765 11.9166 12.8333V5.50001C11.9166 5.2569 11.8201 5.02374 11.6482 4.85183C11.4763 4.67992 11.2431 4.58334 11 4.58334Z" fill="white"/>
<path d="M11.9166 16.5C11.9166 15.9937 11.5062 15.5833 11 15.5833C10.4937 15.5833 10.0833 15.9937 10.0833 16.5C10.0833 17.0063 10.4937 17.4167 11 17.4167C11.5062 17.4167 11.9166 17.0063 11.9166 16.5Z" fill="white"/>
</g>
</g>
<defs>
<clipPath id="clip0_6483_1379">
<rect width="22" height="22" fill="white"/>
</clipPath>
<clipPath id="clip1_6483_1379">
<rect width="22" height="22" fill="white"/>
</clipPath>
</defs>
</svg>
