<svg width="21" height="20" viewBox="0 0 21 20" fill="none" xmlns="http://www.w3.org/2000/svg">
<path d="M0.200012 10C0.200012 4.47715 4.67717 0 10.2 0C15.7229 0 20.2 4.47715 20.2 10C20.2 15.5228 15.7229 20 10.2 20C4.67717 20 0.200012 15.5228 0.200012 10Z" fill="#E0F5FF"/>
<path d="M11.0674 13.0219C11.0674 13.4769 10.6795 13.8462 10.2015 13.8462C9.72348 13.8462 9.33555 13.4769 9.33555 13.0219C9.33555 12.5669 9.72348 12.1977 10.2015 12.1977C10.6795 12.1977 11.0674 12.5669 11.0674 13.0219ZM12.4321 7.77486C12.715 8.81779 12.1845 9.89973 11.1702 10.3465C11.0322 10.4075 10.7782 10.6981 10.7782 10.9888V11.0987C10.7782 11.4026 10.5201 11.6482 10.2009 11.6482C9.88166 11.6482 9.62361 11.4026 9.62361 11.0987V10.9888C9.62361 10.2283 10.1703 9.57663 10.6847 9.34969C11.1072 9.16342 11.4842 8.67712 11.3145 8.05015C11.2163 7.68969 10.8965 7.38527 10.5184 7.29241C10.1472 7.19955 9.78468 7.26878 9.49546 7.48198C9.21028 7.69244 9.04691 8.00949 9.04691 8.35182C9.04691 8.65569 8.78886 8.90131 8.46962 8.90131C8.15038 8.90131 7.89233 8.65569 7.89233 8.35182C7.89233 7.66661 8.2185 7.03305 8.78886 6.61324C9.35806 6.19234 10.0947 6.05167 10.8076 6.2286C11.5916 6.42092 12.2301 7.02756 12.4321 7.77486Z" fill="black"/>
</svg>
