<svg width="33" height="32" viewBox="0 0 33 32" fill="none" xmlns="http://www.w3.org/2000/svg">
<path d="M32.9764 3.57668V7.50984C31.9047 6.93947 30.8094 6.42852 29.6788 5.97698V20.9848C29.5964 21.9948 29.2901 22.9335 28.8191 23.7653C28.2655 24.7278 27.4882 25.5358 26.546 26.1181L26.3812 26.2131L26.2398 26.2963L24.8854 27.0925L19.7859 30.0631L16.4764 32V28.1263L18.2313 27.1043L19.7741 26.2131C19.7741 26.2131 19.7859 26.2131 19.7976 26.225V26.2013L23.955 23.7772L24.6146 23.397C24.697 23.3494 24.7794 23.3019 24.8619 23.2544C25.7452 22.6721 26.3458 21.6977 26.3929 20.5689C26.3929 20.5214 26.3929 20.4619 26.3929 20.4144C26.3929 20.3669 26.3929 20.3075 26.3929 20.2599V4.83624C23.2837 3.93316 19.9861 3.44597 16.5942 3.44597C13.2024 3.44597 9.76338 3.94504 6.59529 4.89566V20.9491C6.85439 22.5414 8.23234 23.7653 9.89293 23.7653H16.4882V27.0925H9.49251C7.20771 26.9618 5.22912 25.6547 4.14561 23.7653C3.69807 22.9811 3.40364 22.0899 3.29764 21.1392V6.06016C2.16702 6.52358 1.05996 7.04642 0 7.61678V3.67174C1.07173 3.17267 2.1788 2.70925 3.29764 2.30524C4.38116 1.91311 5.47645 1.56851 6.59529 1.28333C9.78694 0.439658 13.1435 0 16.5942 0C21.1874 0 25.6039 0.796138 29.7024 2.24582C30.8212 2.64983 31.9283 3.08949 33 3.58856L32.9764 3.57668Z" fill="white"/>
<path d="M11.5178 12.4649C12.6301 12.4649 13.5317 11.5552 13.5317 10.433C13.5317 9.31079 12.6301 8.40106 11.5178 8.40106C10.4056 8.40106 9.50391 9.31079 9.50391 10.433C9.50391 11.5552 10.4056 12.4649 11.5178 12.4649Z" fill="#E0F5FF"/>
<path d="M21.4221 12.4649C22.5344 12.4649 23.436 11.5552 23.436 10.433C23.436 9.31079 22.5344 8.40106 21.4221 8.40106C20.3099 8.40106 19.4082 9.31079 19.4082 10.433C19.4082 11.5552 20.3099 12.4649 21.4221 12.4649Z" fill="#E0F5FF"/>
<path d="M21.4114 15.4355C21.4114 16.3624 21.1641 17.2298 20.7283 17.9666C20.5399 18.2755 20.3279 18.5726 20.0806 18.834C19.9864 18.9409 19.8804 19.036 19.7744 19.1429C18.9029 19.9391 17.7487 20.4263 16.4767 20.4263H16.465C15.0163 20.4263 13.7208 19.7965 12.814 18.8102C12.5902 18.5607 12.39 18.2874 12.2134 18.0022C11.7658 17.2536 11.5067 16.3743 11.5067 15.4355H21.4114Z" fill="#E0F5FF"/>
</svg>
