<svg width="22" height="22" viewBox="0 0 22 22" fill="none" xmlns="http://www.w3.org/2000/svg">
<g clip-path="url(#clip0_6483_1723)">
<g clip-path="url(#clip1_6483_1723)">
<path d="M19.25 19.7083V22H17.4167V19.7083C17.4167 18.4443 16.3891 17.4167 15.125 17.4167H6.875C5.61184 17.4167 4.58334 18.4443 4.58334 19.7083V22H2.75V19.7083C2.75 17.4341 4.60075 15.5833 6.875 15.5833H15.125C17.3993 15.5833 19.25 17.4341 19.25 19.7083ZM11.7553 5.58709C12.9058 5.85201 13.8435 6.78243 14.1158 7.93101C14.3 8.70743 14.1992 9.45176 13.8976 10.0833H15.0948C15.554 10.0833 15.9555 9.74601 16.0087 9.28951C16.071 8.75143 16.0481 8.18768 15.9253 7.61109C15.5183 5.70534 13.9718 4.16809 12.0633 3.77576C8.82109 3.10934 5.95925 5.58159 5.95925 8.70834C5.95925 10.0549 6.49 11.2796 7.35259 12.1843C7.38925 11.407 7.66975 10.6929 8.11892 10.1163C7.90992 9.69101 7.79259 9.21251 7.79259 8.70742C7.79259 6.69168 9.66075 5.10401 11.7563 5.58618L11.7553 5.58709ZM6.29842 3.69234C7.7 2.37876 9.53517 1.72976 11.4593 1.84893C15.0563 2.08176 17.875 5.21218 17.875 8.97509C17.875 10.5976 16.5559 11.9167 14.9334 11.9167H12.7362C12.5134 11.1549 11.8103 10.5976 10.9762 10.5976C9.96325 10.5976 9.14284 11.418 9.14284 12.4309C9.14284 13.4438 9.96325 14.2643 10.9762 14.2643C11.4703 14.2643 11.9194 14.0681 12.2485 13.75H14.9325C17.5652 13.75 19.7074 11.6078 19.7074 8.97509C19.7083 4.24784 16.137 0.313509 11.5775 0.0192588C9.1355 -0.139325 6.81909 0.690259 5.04534 2.35493C3.40725 3.89034 2.42275 6.01793 2.3045 8.25093H4.14059C4.25334 6.50651 5.00959 4.90143 6.29934 3.69234H6.29842Z" fill="white"/>
</g>
</g>
<defs>
<clipPath id="clip0_6483_1723">
<rect width="22" height="22" fill="white"/>
</clipPath>
<clipPath id="clip1_6483_1723">
<rect width="22" height="22" fill="white"/>
</clipPath>
</defs>
</svg>
