<svg width="22" height="22" viewBox="0 0 22 22" fill="none" xmlns="http://www.w3.org/2000/svg">
<g clip-path="url(#clip0_6483_1319)">
<g clip-path="url(#clip1_6483_1319)">
<path d="M22 22H2.75C2.02065 22 1.32118 21.7103 0.805456 21.1945C0.289731 20.6788 0 19.9793 0 19.25L0 0H1.83333V19.25C1.83333 19.4931 1.92991 19.7263 2.10182 19.8982C2.27373 20.0701 2.50688 20.1667 2.75 20.1667H22V22Z" fill="white"/>
<path d="M14.6666 10.0833H12.8333V18.3333H14.6666V10.0833Z" fill="white"/>
<path d="M7.33333 10.0833H5.5V18.3333H7.33333V10.0833Z" fill="white"/>
<path d="M18.3333 5.5H16.5V18.3333H18.3333V5.5Z" fill="white"/>
<path d="M11 5.5H9.16669V18.3333H11V5.5Z" fill="white"/>
</g>
</g>
<defs>
<clipPath id="clip0_6483_1319">
<rect width="22" height="22" fill="white"/>
</clipPath>
<clipPath id="clip1_6483_1319">
<rect width="22" height="22" fill="white"/>
</clipPath>
</defs>
</svg>
