<svg width="19" height="19" viewBox="0 0 19 19" fill="none" xmlns="http://www.w3.org/2000/svg">
<g clip-path="url(#clip0_6394_766)">
<g clip-path="url(#clip1_6394_766)">
<path d="M10.8837 13.4502L8.4372 15.8967C7.7269 16.588 6.77296 16.9719 5.78179 16.9653C4.79062 16.9586 3.84191 16.562 3.14094 15.8612C2.43996 15.1604 2.04307 14.2119 2.03615 13.2207C2.02923 12.2295 2.41283 11.2755 3.10395 10.565L5.55045 8.11622C5.69109 7.97549 5.77005 7.78465 5.76998 7.5857C5.76991 7.38675 5.69081 7.19597 5.55008 7.05534C5.40935 6.91471 5.21852 6.83575 5.01956 6.83582C4.82061 6.83589 4.62984 6.91499 4.4892 7.05572L2.04345 9.50447C1.05516 10.4933 0.500137 11.8342 0.500488 13.2322C0.50084 14.6302 1.05654 15.9708 2.04533 16.9591C3.03412 17.9474 4.37502 18.5024 5.77303 18.5021C7.17104 18.5017 8.51166 17.946 9.49995 16.9572L11.9465 14.5107C12.0831 14.3693 12.1587 14.1798 12.157 13.9832C12.1553 13.7865 12.0764 13.5984 11.9373 13.4594C11.7983 13.3203 11.6102 13.2414 11.4135 13.2397C11.2169 13.238 11.0274 13.3136 10.886 13.4502H10.8837Z" fill="#1C174C" fill-opacity="0.75"/>
<path d="M16.9581 2.04577C16.4701 1.55438 15.8894 1.16473 15.2497 0.899391C14.6099 0.634054 13.9239 0.498308 13.2314 0.500018C12.5392 0.49818 11.8535 0.633577 11.2139 0.898382C10.5744 1.16319 9.99365 1.55215 9.50536 2.04277L7.05511 4.49002C6.91438 4.63065 6.83528 4.82143 6.83521 5.02038C6.83513 5.21933 6.9141 5.41016 7.05473 5.55089C7.19536 5.69162 7.38614 5.77073 7.58509 5.7708C7.78404 5.77087 7.97488 5.6919 8.11561 5.55127L10.5644 3.10477C10.9135 2.75351 11.3289 2.475 11.7864 2.28536C12.244 2.09573 12.7346 1.99874 13.2299 2.00002C13.9756 2.00027 14.7044 2.22159 15.3244 2.63602C15.9443 3.05044 16.4274 3.63937 16.7127 4.32833C16.998 5.0173 17.0726 5.77538 16.9271 6.50675C16.7817 7.23812 16.4226 7.90993 15.8954 8.43727L13.4489 10.8838C13.3081 11.0245 13.2291 11.2154 13.2291 11.4144C13.2291 11.6134 13.3081 11.8043 13.4489 11.945C13.5896 12.0858 13.7805 12.1648 13.9795 12.1648C14.1785 12.1648 14.3694 12.0858 14.5101 11.945L16.9566 9.50002C17.9436 8.51084 18.4981 7.1706 18.4984 5.7732C18.4987 4.37581 17.9447 3.03534 16.9581 2.04577Z" fill="#1C174C" fill-opacity="0.75"/>
<path d="M11.2197 6.71981L6.71969 11.2198C6.64806 11.289 6.59092 11.3718 6.55161 11.4633C6.51231 11.5548 6.49162 11.6532 6.49075 11.7528C6.48989 11.8523 6.50886 11.9511 6.54657 12.0433C6.58428 12.1354 6.63997 12.2192 6.71039 12.2896C6.78081 12.36 6.86455 12.4157 6.95672 12.4534C7.0489 12.4911 7.14766 12.5101 7.24724 12.5092C7.34682 12.5084 7.44524 12.4877 7.53674 12.4484C7.62825 12.4091 7.711 12.3519 7.78019 12.2803L12.2802 7.78031C12.4168 7.63886 12.4924 7.44941 12.4907 7.25276C12.489 7.05611 12.4101 6.868 12.2711 6.72895C12.132 6.58989 11.9439 6.51101 11.7472 6.50931C11.5506 6.5076 11.3611 6.58319 11.2197 6.71981Z" fill="#1C174C" fill-opacity="0.75"/>
</g>
</g>
<defs>
<clipPath id="clip0_6394_766">
<rect width="18" height="18" fill="white" transform="translate(0.5 0.5)"/>
</clipPath>
<clipPath id="clip1_6394_766">
<rect width="18" height="18" fill="white" transform="translate(0.5 0.5)"/>
</clipPath>
</defs>
</svg>
