<svg width="19" height="19" viewBox="0 0 19 19" fill="none" xmlns="http://www.w3.org/2000/svg">
<g clip-path="url(#clip0_6394_586)">
<path d="M9.33326 0.5C7.55322 0.5 5.81317 1.02784 4.33312 2.01677C2.85308 3.00571 1.69953 4.41131 1.01834 6.05585C0.337152 7.70038 0.158921 9.50998 0.506188 11.2558C0.853455 13.0016 1.71062 14.6053 2.9693 15.864C4.22797 17.1226 5.83161 17.9798 7.57744 18.3271C9.32327 18.6743 11.1329 18.4961 12.7774 17.8149C14.4219 17.1337 15.8275 15.9802 16.8165 14.5001C17.8054 13.0201 18.3333 11.28 18.3333 9.5C18.3307 7.11384 17.3816 4.82616 15.6944 3.13889C14.0071 1.45162 11.7194 0.502581 9.33326 0.5ZM15.8185 5.75H13.4028C12.862 4.49674 12.1499 3.32456 11.287 2.267C13.1969 2.7867 14.825 4.0381 15.8185 5.75ZM12.7083 9.5C12.7021 10.2636 12.5818 11.022 12.3513 11.75H6.31526C6.08474 11.022 5.96441 10.2636 5.95826 9.5C5.96441 8.7364 6.08474 7.97801 6.31526 7.25H12.3513C12.5818 7.97801 12.7021 8.7364 12.7083 9.5ZM6.91676 13.25H11.7498C11.1132 14.5068 10.2994 15.6656 9.33326 16.691C8.36679 15.6659 7.55294 14.507 6.91676 13.25ZM6.91676 5.75C7.55333 4.4932 8.36714 3.33437 9.33326 2.309C10.2997 3.33408 11.1136 4.49297 11.7498 5.75H6.91676ZM7.38326 2.267C6.519 3.32434 5.80569 4.49652 5.26376 5.75H2.84801C3.8424 4.03732 5.472 2.78582 7.38326 2.267ZM2.17901 7.25H4.75826C4.56382 7.98436 4.46303 8.74035 4.45826 9.5C4.46303 10.2596 4.56382 11.0156 4.75826 11.75H2.17901C1.71801 10.2854 1.71801 8.71458 2.17901 7.25ZM2.84801 13.25H5.26376C5.80569 14.5035 6.519 15.6757 7.38326 16.733C5.472 16.2142 3.8424 14.9627 2.84801 13.25ZM11.287 16.733C12.1499 15.6754 12.862 14.5033 13.4028 13.25H15.8185C14.825 14.9619 13.1969 16.2133 11.287 16.733ZM16.4875 11.75H13.9083C14.1027 11.0156 14.2035 10.2596 14.2083 9.5C14.2035 8.74035 14.1027 7.98436 13.9083 7.25H16.486C16.947 8.71458 16.947 10.2854 16.486 11.75H16.4875Z" fill="#5A3DCC"/>
</g>
<defs>
<clipPath id="clip0_6394_586">
<rect width="18" height="18" fill="white" transform="translate(0.333252 0.5)"/>
</clipPath>
</defs>
</svg>
